<mxfile host="app.diagrams.net" modified="2021-01-02T21:10:53.496Z" agent="5.0 (Windows NT 10.0; Win64; x64) AppleWebKit/537.36 (KHTML, like Gecko) Chrome/87.0.4280.88 Safari/537.36" etag="BNe5k9s1tVP2P24qWUml" version="14.1.7" type="github">
  <diagram name="Page-1" id="bfe91b75-5d2c-26a0-9c1d-138518896778">
    <mxGraphModel dx="1038" dy="548" grid="1" gridSize="10" guides="1" tooltips="1" connect="1" arrows="1" fold="1" page="1" pageScale="1" pageWidth="1100" pageHeight="850" background="#F4F1DE" math="0" shadow="0">
      <root>
        <mxCell id="0" />
        <mxCell id="1" parent="0" />
        <mxCell id="zRTNHlewv-1z-Cap3T_F-50" style="rounded=1;sketch=0;orthogonalLoop=1;jettySize=auto;html=1;exitX=0.5;exitY=0;exitDx=0;exitDy=0;exitPerimeter=0;fillColor=#F2CC8F;fontColor=#393C56;fontStyle=1;strokeWidth=3;endArrow=none;endFill=0;" edge="1" parent="1" source="zRTNHlewv-1z-Cap3T_F-1" target="zRTNHlewv-1z-Cap3T_F-2">
          <mxGeometry relative="1" as="geometry" />
        </mxCell>
        <mxCell id="zRTNHlewv-1z-Cap3T_F-1" value="" style="fontColor=#393C56;verticalAlign=top;verticalLabelPosition=bottom;labelPosition=center;align=center;html=1;outlineConnect=0;fillColor=#F2CC8F;strokeColor=#E07A5F;gradientDirection=north;strokeWidth=2;shape=mxgraph.networks.laptop;" vertex="1" parent="1">
          <mxGeometry x="135" y="380" width="100" height="55" as="geometry" />
        </mxCell>
        <mxCell id="zRTNHlewv-1z-Cap3T_F-51" style="edgeStyle=none;rounded=1;sketch=0;orthogonalLoop=1;jettySize=auto;html=1;exitX=0.91;exitY=0.5;exitDx=0;exitDy=0;exitPerimeter=0;entryX=0;entryY=0.5;entryDx=0;entryDy=0;entryPerimeter=0;endArrow=none;endFill=0;strokeColor=#000000;strokeWidth=3;fillColor=#F2CC8F;fontColor=#393C56;" edge="1" parent="1" source="zRTNHlewv-1z-Cap3T_F-2" target="zRTNHlewv-1z-Cap3T_F-3">
          <mxGeometry relative="1" as="geometry" />
        </mxCell>
        <mxCell id="zRTNHlewv-1z-Cap3T_F-2" value="Internet" style="html=1;outlineConnect=0;fillColor=#F2CC8F;strokeColor=#E07A5F;gradientDirection=north;strokeWidth=2;shape=mxgraph.networks.cloud;fontColor=#393C56;fontStyle=1" vertex="1" parent="1">
          <mxGeometry x="140" y="240" width="90" height="50" as="geometry" />
        </mxCell>
        <mxCell id="zRTNHlewv-1z-Cap3T_F-52" style="edgeStyle=none;rounded=1;sketch=0;orthogonalLoop=1;jettySize=auto;html=1;exitX=1;exitY=0.5;exitDx=0;exitDy=0;exitPerimeter=0;entryX=0;entryY=0.5;entryDx=0;entryDy=0;entryPerimeter=0;endArrow=none;endFill=0;strokeColor=#000000;strokeWidth=3;fillColor=#F2CC8F;fontColor=#393C56;" edge="1" parent="1" source="zRTNHlewv-1z-Cap3T_F-3" target="zRTNHlewv-1z-Cap3T_F-4">
          <mxGeometry relative="1" as="geometry" />
        </mxCell>
        <mxCell id="zRTNHlewv-1z-Cap3T_F-61" value="" style="edgeStyle=none;rounded=1;sketch=0;orthogonalLoop=1;jettySize=auto;html=1;endArrow=none;endFill=0;strokeColor=#000000;strokeWidth=3;fillColor=#F2CC8F;fontColor=#393C56;" edge="1" parent="1" source="zRTNHlewv-1z-Cap3T_F-3" target="zRTNHlewv-1z-Cap3T_F-5">
          <mxGeometry relative="1" as="geometry" />
        </mxCell>
        <mxCell id="zRTNHlewv-1z-Cap3T_F-3" value="" style="fontColor=#393C56;verticalAlign=top;verticalLabelPosition=bottom;labelPosition=center;align=center;html=1;outlineConnect=0;fillColor=#F2CC8F;strokeColor=#E07A5F;gradientDirection=north;strokeWidth=2;shape=mxgraph.networks.firewall;" vertex="1" parent="1">
          <mxGeometry x="317.5" y="215" width="92.5" height="100" as="geometry" />
        </mxCell>
        <mxCell id="zRTNHlewv-1z-Cap3T_F-57" style="edgeStyle=none;rounded=1;sketch=0;orthogonalLoop=1;jettySize=auto;html=1;exitX=0.5;exitY=1;exitDx=0;exitDy=0;exitPerimeter=0;entryX=0.5;entryY=0;entryDx=0;entryDy=0;entryPerimeter=0;endArrow=none;endFill=0;strokeColor=#000000;strokeWidth=3;fillColor=#F2CC8F;fontColor=#393C56;" edge="1" parent="1" source="zRTNHlewv-1z-Cap3T_F-4" target="zRTNHlewv-1z-Cap3T_F-6">
          <mxGeometry relative="1" as="geometry" />
        </mxCell>
        <mxCell id="zRTNHlewv-1z-Cap3T_F-4" value="" style="fontColor=#393C56;verticalAlign=top;verticalLabelPosition=bottom;labelPosition=center;align=center;html=1;outlineConnect=0;fillColor=#F2CC8F;strokeColor=#E07A5F;gradientDirection=north;strokeWidth=2;shape=mxgraph.networks.load_balancer;" vertex="1" parent="1">
          <mxGeometry x="570" y="250" width="100" height="30" as="geometry" />
        </mxCell>
        <mxCell id="zRTNHlewv-1z-Cap3T_F-5" value="" style="fontColor=#393C56;verticalAlign=top;verticalLabelPosition=bottom;labelPosition=center;align=center;html=1;outlineConnect=0;fillColor=#F2CC8F;strokeColor=#E07A5F;gradientDirection=north;strokeWidth=2;shape=mxgraph.networks.proxy_server;" vertex="1" parent="1">
          <mxGeometry x="326.25" y="347.5" width="75" height="82.5" as="geometry" />
        </mxCell>
        <mxCell id="zRTNHlewv-1z-Cap3T_F-71" style="edgeStyle=none;rounded=1;sketch=0;orthogonalLoop=1;jettySize=auto;html=1;exitX=0.5;exitY=1;exitDx=0;exitDy=0;exitPerimeter=0;endArrow=none;endFill=0;strokeColor=#000000;strokeWidth=3;fillColor=#F2CC8F;fontColor=#393C56;" edge="1" parent="1" source="zRTNHlewv-1z-Cap3T_F-6">
          <mxGeometry relative="1" as="geometry">
            <mxPoint x="590" y="440" as="targetPoint" />
          </mxGeometry>
        </mxCell>
        <mxCell id="zRTNHlewv-1z-Cap3T_F-6" value="" style="fontColor=#393C56;verticalAlign=top;verticalLabelPosition=bottom;labelPosition=center;align=center;html=1;outlineConnect=0;fillColor=#F2CC8F;strokeColor=#E07A5F;gradientDirection=north;strokeWidth=2;shape=mxgraph.networks.server;" vertex="1" parent="1">
          <mxGeometry x="560" y="315" width="60" height="80" as="geometry" />
        </mxCell>
        <mxCell id="zRTNHlewv-1z-Cap3T_F-58" style="edgeStyle=none;rounded=1;sketch=0;orthogonalLoop=1;jettySize=auto;html=1;exitX=0.5;exitY=0;exitDx=0;exitDy=0;exitPerimeter=0;endArrow=none;endFill=0;strokeColor=#000000;strokeWidth=3;fillColor=#F2CC8F;fontColor=#393C56;" edge="1" parent="1" source="zRTNHlewv-1z-Cap3T_F-7">
          <mxGeometry relative="1" as="geometry">
            <mxPoint x="620" y="280" as="targetPoint" />
          </mxGeometry>
        </mxCell>
        <mxCell id="zRTNHlewv-1z-Cap3T_F-69" style="edgeStyle=elbowEdgeStyle;rounded=1;sketch=0;orthogonalLoop=1;jettySize=auto;html=1;exitX=0.5;exitY=1;exitDx=0;exitDy=0;exitPerimeter=0;endArrow=none;endFill=0;strokeColor=#000000;strokeWidth=3;fillColor=#F2CC8F;fontColor=#393C56;" edge="1" parent="1" source="zRTNHlewv-1z-Cap3T_F-7" target="zRTNHlewv-1z-Cap3T_F-5">
          <mxGeometry relative="1" as="geometry">
            <mxPoint x="585" y="470" as="targetPoint" />
            <Array as="points">
              <mxPoint x="390" y="440" />
              <mxPoint x="585" y="460" />
            </Array>
          </mxGeometry>
        </mxCell>
        <mxCell id="zRTNHlewv-1z-Cap3T_F-7" value="" style="fontColor=#393C56;verticalAlign=top;verticalLabelPosition=bottom;labelPosition=center;align=center;html=1;outlineConnect=0;fillColor=#F2CC8F;strokeColor=#E07A5F;gradientDirection=north;strokeWidth=2;shape=mxgraph.networks.server;" vertex="1" parent="1">
          <mxGeometry x="635" y="315" width="60" height="80" as="geometry" />
        </mxCell>
        <mxCell id="zRTNHlewv-1z-Cap3T_F-13" value="Local Workstation" style="text;html=1;resizable=0;autosize=1;align=center;verticalAlign=middle;points=[];fillColor=none;strokeColor=none;rounded=0;sketch=0;fontColor=#393C56;fontStyle=1" vertex="1" parent="1">
          <mxGeometry x="125" y="435" width="120" height="20" as="geometry" />
        </mxCell>
        <mxCell id="zRTNHlewv-1z-Cap3T_F-14" value="SSH&lt;br&gt;HTTP" style="text;html=1;resizable=0;autosize=1;align=center;verticalAlign=middle;points=[];fillColor=none;strokeColor=none;rounded=0;sketch=0;fontColor=#393C56;fontStyle=1" vertex="1" parent="1">
          <mxGeometry x="135" y="325" width="50" height="30" as="geometry" />
        </mxCell>
        <mxCell id="zRTNHlewv-1z-Cap3T_F-25" value="Vladimir Resource Group" style="text;html=1;resizable=0;autosize=1;align=center;verticalAlign=middle;points=[];fillColor=none;strokeColor=none;rounded=0;shadow=1;sketch=0;fontColor=#393C56;fontStyle=1" vertex="1" parent="1">
          <mxGeometry x="435" y="50" width="160" height="20" as="geometry" />
        </mxCell>
        <mxCell id="zRTNHlewv-1z-Cap3T_F-27" value="VVB Virtual Network 10.1.0.0/16" style="text;html=1;resizable=0;autosize=1;align=center;verticalAlign=middle;points=[];fillColor=none;strokeColor=none;rounded=0;shadow=1;sketch=0;fontColor=#393C56;fontStyle=1" vertex="1" parent="1">
          <mxGeometry x="425" y="90" width="190" height="20" as="geometry" />
        </mxCell>
        <mxCell id="zRTNHlewv-1z-Cap3T_F-30" value="&lt;b&gt;Vladimir-FW Security Group&lt;/b&gt;" style="text;html=1;resizable=0;autosize=1;align=center;verticalAlign=middle;points=[];fillColor=none;strokeColor=none;rounded=0;shadow=1;sketch=0;fontColor=#393C56;" vertex="1" parent="1">
          <mxGeometry x="260" y="190" width="180" height="20" as="geometry" />
        </mxCell>
        <mxCell id="zRTNHlewv-1z-Cap3T_F-59" value="&lt;b&gt;RedTeam-LB&lt;br&gt;104.211.36.49&lt;br&gt;&lt;/b&gt;" style="text;html=1;resizable=0;autosize=1;align=center;verticalAlign=middle;points=[];fillColor=none;strokeColor=none;rounded=0;shadow=1;sketch=0;fontColor=#393C56;" vertex="1" parent="1">
          <mxGeometry x="576" y="210" width="90" height="30" as="geometry" />
        </mxCell>
        <mxCell id="zRTNHlewv-1z-Cap3T_F-62" value="&lt;b&gt;HTTP (p 80)&lt;/b&gt;" style="text;html=1;resizable=0;autosize=1;align=center;verticalAlign=middle;points=[];fillColor=none;strokeColor=none;rounded=0;shadow=1;sketch=0;fontColor=#393C56;" vertex="1" parent="1">
          <mxGeometry x="450" y="240" width="80" height="20" as="geometry" />
        </mxCell>
        <mxCell id="zRTNHlewv-1z-Cap3T_F-63" value="&lt;b&gt;SSH&lt;/b&gt;" style="text;html=1;resizable=0;autosize=1;align=center;verticalAlign=middle;points=[];fillColor=none;strokeColor=none;rounded=0;shadow=1;sketch=0;fontColor=#393C56;" vertex="1" parent="1">
          <mxGeometry x="245" y="240" width="40" height="20" as="geometry" />
        </mxCell>
        <mxCell id="zRTNHlewv-1z-Cap3T_F-65" value="&lt;b&gt;Jump-Box VM&lt;br&gt;Ansible&lt;br&gt;52.188.105.22&lt;br&gt;10.0.0.10&lt;br&gt;&lt;/b&gt;" style="text;html=1;resizable=0;autosize=1;align=center;verticalAlign=middle;points=[];fillColor=none;strokeColor=none;rounded=0;shadow=1;sketch=0;fontColor=#393C56;" vertex="1" parent="1">
          <mxGeometry x="285" y="435" width="100" height="60" as="geometry" />
        </mxCell>
        <mxCell id="zRTNHlewv-1z-Cap3T_F-76" value="&lt;b&gt;Web-1&lt;br&gt;w/Docker&lt;br&gt;10.0.0.11&lt;br&gt;&lt;/b&gt;" style="text;html=1;resizable=0;autosize=1;align=center;verticalAlign=middle;points=[];fillColor=none;strokeColor=none;rounded=0;shadow=1;sketch=0;fontColor=#393C56;" vertex="1" parent="1">
          <mxGeometry x="490" y="337.5" width="70" height="50" as="geometry" />
        </mxCell>
        <mxCell id="zRTNHlewv-1z-Cap3T_F-77" value="&lt;b&gt;Web-2&lt;br&gt;&lt;/b&gt;&lt;b&gt;w/Docker&lt;/b&gt;&lt;b&gt;&lt;br&gt;10.0.0.12&lt;br&gt;&lt;/b&gt;" style="text;html=1;resizable=0;autosize=1;align=center;verticalAlign=middle;points=[];fillColor=none;strokeColor=none;rounded=0;shadow=1;sketch=0;fontColor=#393C56;" vertex="1" parent="1">
          <mxGeometry x="690" y="337.5" width="70" height="50" as="geometry" />
        </mxCell>
        <mxCell id="zRTNHlewv-1z-Cap3T_F-78" value="&lt;b&gt;SSH&lt;/b&gt;" style="text;html=1;resizable=0;autosize=1;align=center;verticalAlign=middle;points=[];fillColor=none;strokeColor=none;rounded=0;shadow=1;sketch=0;fontColor=#393C56;" vertex="1" parent="1">
          <mxGeometry x="326.25" y="325" width="40" height="20" as="geometry" />
        </mxCell>
        <mxCell id="zRTNHlewv-1z-Cap3T_F-79" value="" style="endArrow=none;dashed=1;html=1;strokeColor=#000000;strokeWidth=2;fillColor=#F2CC8F;fontColor=#393C56;" edge="1" parent="1">
          <mxGeometry width="50" height="50" relative="1" as="geometry">
            <mxPoint x="490" y="480" as="sourcePoint" />
            <mxPoint x="490" y="290" as="targetPoint" />
            <Array as="points">
              <mxPoint x="490" y="390" />
            </Array>
          </mxGeometry>
        </mxCell>
        <mxCell id="zRTNHlewv-1z-Cap3T_F-81" value="" style="endArrow=none;dashed=1;html=1;strokeColor=#000000;strokeWidth=2;fillColor=#F2CC8F;fontColor=#393C56;" edge="1" parent="1">
          <mxGeometry width="50" height="50" relative="1" as="geometry">
            <mxPoint x="760" y="290" as="sourcePoint" />
            <mxPoint x="490" y="480" as="targetPoint" />
            <Array as="points">
              <mxPoint x="760" y="480" />
            </Array>
          </mxGeometry>
        </mxCell>
        <mxCell id="zRTNHlewv-1z-Cap3T_F-85" value="&lt;b&gt;Load Balancer Backend Pool&lt;/b&gt;" style="text;html=1;resizable=0;autosize=1;align=center;verticalAlign=middle;points=[];fillColor=none;strokeColor=none;rounded=0;shadow=1;sketch=0;fontColor=#393C56;" vertex="1" parent="1">
          <mxGeometry x="540" y="455" width="180" height="20" as="geometry" />
        </mxCell>
        <mxCell id="zRTNHlewv-1z-Cap3T_F-86" value="" style="endArrow=none;dashed=1;html=1;strokeColor=#000000;strokeWidth=2;fillColor=#F2CC8F;fontColor=#393C56;" edge="1" parent="1">
          <mxGeometry width="50" height="50" relative="1" as="geometry">
            <mxPoint x="760" y="290" as="sourcePoint" />
            <mxPoint x="490" y="290" as="targetPoint" />
          </mxGeometry>
        </mxCell>
        <mxCell id="zRTNHlewv-1z-Cap3T_F-87" value="&lt;b&gt;DVWA Containers&lt;/b&gt;" style="text;html=1;resizable=0;autosize=1;align=center;verticalAlign=middle;points=[];fillColor=none;strokeColor=none;rounded=0;shadow=1;sketch=0;fontColor=#393C56;" vertex="1" parent="1">
          <mxGeometry x="480" y="415" width="120" height="20" as="geometry" />
        </mxCell>
      </root>
    </mxGraphModel>
  </diagram>
</mxfile>
